<?xml version="1.0" standalone="no"?>
<!DOCTYPE svg PUBLIC "-//W3C//DTD SVG 20010904//EN"
 "http://www.w3.org/TR/2001/REC-SVG-20010904/DTD/svg10.dtd">
<svg version="1.0" xmlns="http://www.w3.org/2000/svg"
 width="633.000000pt" height="633.000000pt" viewBox="0 0 633.000000 633.000000"
 preserveAspectRatio="xMidYMid meet">

<g transform="translate(0.000000,633.000000) scale(0.100000,-0.100000)"
fill="white" stroke="none">
<path d="M0 3165 l0 -3165 3165 0 3165 0 0 3165 0 3165 -3165 0 -3165 0 0
-3165z m1630 1474 c104 -28 183 -73 262 -147 102 -96 160 -199 205 -362 26
-92 25 -422 -1 -565 -29 -157 -73 -302 -123 -405 -39 -78 -62 -110 -133 -181
-69 -71 -101 -94 -171 -128 -174 -84 -292 -101 -721 -108 -312 -5 -338 -4
-338 11 0 10 23 225 50 479 28 254 66 605 85 780 19 176 35 327 35 338 0 17
-8 19 -65 19 -129 0 -154 35 -135 190 l12 100 482 0 c456 0 485 -1 556 -21z
m2461 -365 c-22 -198 -61 -541 -86 -764 -25 -223 -48 -420 -51 -437 l-6 -33
136 0 c115 0 136 2 136 15 0 53 162 1465 171 1486 14 35 34 44 159 74 130 31
140 31 140 3 0 -21 -97 -895 -145 -1308 -14 -118 -25 -227 -25 -242 l0 -28
320 0 c210 0 320 3 320 10 0 10 -136 299 -144 308 -2 2 -24 -12 -48 -30 -24
-18 -69 -42 -100 -53 -86 -29 -90 -18 -44 102 21 54 56 150 77 215 20 64 43
125 50 136 18 29 62 52 101 52 75 0 81 -9 298 -437 222 -437 232 -465 191
-531 -12 -18 -35 -41 -53 -52 -33 -20 -48 -20 -1153 -18 l-1120 3 -47 22
c-111 51 -184 160 -195 291 -3 41 3 138 17 252 12 102 28 239 35 305 19 153
19 154 184 194 68 17 127 29 130 26 4 -2 -12 -172 -35 -377 -25 -233 -38 -381
-33 -395 8 -23 11 -23 193 -23 l185 0 6 33 c3 17 21 167 40 332 19 165 55 482
80 705 28 242 53 416 61 432 8 15 23 32 34 38 30 16 255 68 258 59 2 -4 -15
-168 -37 -365z m-769 -82 c37 -35 42 -45 45 -93 3 -42 0 -61 -16 -86 -63 -101
-210 -90 -255 18 -23 57 -16 105 21 150 33 38 55 48 116 48 42 1 53 -4 89 -37z
m-802 -370 c0 -21 2 -41 5 -44 3 -3 45 8 93 24 48 16 107 30 132 31 56 3 64
-12 81 -150 10 -81 10 -104 0 -117 -7 -8 -62 -31 -123 -50 -123 -40 -210 -91
-226 -133 -6 -15 -23 -147 -37 -293 -14 -146 -28 -284 -31 -307 l-6 -43 -144
0 -144 0 0 28 c0 15 11 128 24 252 84 775 79 732 100 757 15 17 51 32 131 53
147 38 145 38 145 -8z m-1811 -1376 c18 -21 10 -80 -11 -84 -12 -2 -17 5 -20
29 -2 18 -9 34 -15 37 -9 3 -13 -12 -13 -52 0 -52 2 -56 23 -56 38 0 47 -19
47 -97 0 -61 -3 -74 -19 -83 -51 -27 -107 8 -99 62 5 35 42 31 46 -4 2 -16 9
-28 18 -28 10 0 14 14 14 55 0 50 -2 55 -22 55 -39 0 -58 28 -58 87 0 75 12
93 59 93 21 0 44 -6 50 -14z m481 -132 c0 -133 1 -145 18 -142 15 3 17 19 20
146 2 134 4 142 22 142 19 0 20 -7 20 -151 0 -168 -4 -178 -66 -179 -51 0 -54
10 -54 177 0 146 1 153 20 153 19 0 20 -7 20 -146z m618 134 c7 -7 12 -37 12
-68 0 -31 -5 -61 -12 -68 -9 -9 -9 -15 0 -24 7 -7 12 -39 12 -71 0 -71 -14
-86 -77 -87 l-43 0 0 165 0 165 48 0 c26 0 53 -5 60 -12z m505 -35 c3 -27 9
-74 13 -106 3 -32 9 -55 13 -52 3 4 11 50 16 103 l10 97 33 3 33 3 -3 -163
c-3 -137 -5 -163 -18 -163 -12 0 -16 18 -20 85 -6 89 -11 82 -25 -33 -7 -49
-29 -73 -45 -46 -5 7 -12 47 -17 89 l-8 75 -5 -85 c-4 -69 -8 -85 -22 -88 -15
-3 -17 12 -20 146 -2 82 -2 157 0 166 2 10 14 16 31 16 26 0 29 -4 34 -47z
m587 -118 c0 -158 -1 -165 -20 -165 -19 0 -20 7 -20 165 0 158 1 165 20 165
19 0 20 -7 20 -165z m537 138 c5 -16 7 -38 5 -51 -5 -33 -36 -24 -42 13 -8 48
-25 35 -28 -22 -3 -51 -2 -53 22 -53 40 0 59 -39 54 -107 -5 -62 -23 -83 -69
-83 -31 0 -46 15 -49 50 -4 43 -1 50 20 50 16 0 20 -7 20 -30 0 -20 5 -30 15
-30 12 0 15 13 15 55 0 51 -2 55 -24 55 -34 0 -44 17 -47 80 -4 86 4 100 56
100 38 0 44 -3 52 -27z m531 15 c7 -7 12 -27 12 -45 0 -26 -4 -33 -19 -33 -14
0 -21 8 -23 28 -5 45 -23 26 -26 -28 -3 -47 -1 -50 20 -50 39 0 48 -19 48 -97
0 -78 -10 -93 -62 -93 -34 0 -48 18 -48 63 0 31 3 38 18 35 10 -2 18 -14 20
-31 2 -15 9 -27 18 -27 10 0 14 14 14 55 0 51 -2 55 -23 55 -13 0 -28 5 -35
12 -17 17 -16 155 1 161 23 10 73 7 85 -5z m480 -150 c-3 -137 -5 -163 -18
-163 -13 0 -15 26 -18 163 -2 158 -2 162 18 162 20 0 20 -4 18 -162z m547 2
l0 -155 -27 -9 c-18 -6 -38 -6 -55 0 l-28 9 -3 144 c-2 100 1 148 9 158 8 9
27 13 58 11 l46 -3 0 -155z m502 73 l20 -88 2 88 c1 80 3 87 21 87 19 0 20 -7
20 -166 0 -165 0 -165 -22 -162 -23 3 -24 5 -50 123 l-13 60 -5 -90 c-4 -71
-8 -90 -20 -90 -13 0 -15 26 -18 163 l-2 162 23 0 c21 0 25 -8 44 -87z"/>
<path d="M1032 4363 c2 -4 12 -24 22 -44 18 -36 18 -40 -48 -650 -36 -338 -66
-618 -66 -623 0 -11 320 0 409 15 206 33 317 115 385 284 36 90 74 273 87 425
20 226 -18 384 -115 488 -29 31 -70 60 -109 78 l-62 29 -254 3 c-139 2 -251 0
-249 -5z"/>
<path d="M1740 2374 c0 -46 3 -55 17 -52 28 5 26 108 -3 108 -10 0 -14 -14
-14 -56z"/>
<path d="M1740 2226 c0 -42 4 -56 15 -56 8 0 17 14 20 34 9 46 3 70 -18 74
-14 3 -17 -5 -17 -52z"/>
<path d="M4927 2424 c-4 -4 -7 -63 -7 -131 0 -113 2 -124 18 -121 15 3 17 17
17 127 0 116 -7 146 -28 125z"/>
</g>
</svg>
